<svg xmlns="http://www.w3.org/2000/svg" viewBox="0 0 177 177"><defs><style>.cls-1{fill:red;}.cls-2{fill:#fff;}</style></defs><title>BItdefender-B-Icon-Red</title><g id="Layer_2" data-name="Layer 2"><g id="Layer_1-2" data-name="Layer 1"><path class="cls-1" d="M88.5,0A88.5,88.5,0,1,0,177,88.5,88.5,88.5,0,0,0,88.5,0Z"/><path class="cls-2" d="M93.25,134.82H59.87V57.36c0-4.22-.74-5.1-6.43-9.76l-4.76-4.05V42.17H96c14,0,28.39,6.42,28.39,23.3,0,10.47-6.54,17.4-16.09,20.29V86a22.05,22.05,0,0,1,20,22.38c0,20.16-17.54,26.42-35.07,26.42Z"/><path class="cls-1" d="M104.7,76a10.37,10.37,0,0,0,3.2-7.76,10.59,10.59,0,0,0-3.09-8C102,57.59,99.18,56.32,90,56.32H76.37V79.87h15c6.81,0,10.55-1.29,13.28-3.89Z"/><path class="cls-1" d="M92.21,94H76.37v26.7H91.55c8.51,0,20.27-1.45,20.27-13.61,0-9.69-6.27-13.09-19.61-13.09Z"/></g></g></svg>